<svg xmlns="http://www.w3.org/2000/svg" xmlns:xlink="http://www.w3.org/1999/xlink" version="1.1" x="0px" y="0px" viewBox="0 0 32 32" enable-background="new 0 0 32 32" xml:space="preserve"><g display="none"><rect x="-69.333" y="-144.661" display="inline" fill="#000000" width="473.333" height="236"></rect></g><g display="none"><g display="inline"><g><polygon fill="#000000" points="13.289,4.343 13.289,27.657 0,14.369 0,4.343    "></polygon></g><g><polygon fill="#000000" points="18.711,4.343 18.711,27.657 32,14.369 32,4.343    "></polygon></g></g></g><g><g><g><path d="M12.289,5.343v19.9L1,13.954V5.343H12.289 M13.289,4.343H0v10.026l13.289,13.289V4.343L13.289,4.343z"></path></g><g><path d="M31,5.343v8.612L19.711,25.243v-19.9H31 M32,4.343H18.711v23.315L32,14.369V4.343L32,4.343z"></path></g></g></g><g display="none"><g display="inline"><polygon fill="#000000" points="0.5,14.162 0.5,4.843 12.789,4.843 12.789,26.45   "></polygon><g><path d="M12.289,5.343v19.9L1,13.954V5.343H12.289 M13.289,4.343H0v10.026l13.289,13.289V4.343L13.289,4.343z"></path></g></g><g display="inline"><polygon fill="#000000" points="19.211,4.843 31.5,4.843 31.5,14.162 19.211,26.45   "></polygon><g><path fill="#000000" d="M31,5.343v8.612L19.711,25.243v-19.9H31 M32,4.343H18.711v23.315L32,14.369V4.343L32,4.343z"></path></g></g></g><g display="none"><polygon display="inline" fill="#000000" points="13.289,4.343 13.289,27.657 0,14.369 0,4.343  "></polygon><polygon display="inline" fill="#000000" points="18.711,4.343 18.711,27.657 32,14.369 32,4.343  "></polygon></g></svg>